# xmcd
#
# Track frame offsets: 
#        150
#        16685
#        36685
#        54192
#        71000
#        81540
#        94780
#        108322
#        126192
#        143557
#        162750
#
# Disc length: 2453 seconds
#
# Revision: 3
# Processed by: cddbd v1.5.2PL0 Copyright (c) Steve Scherf et al.
# Submitted via: ExactAudioCopy v0.99pb5
#
DISCID=8e09930b
DTITLE=Allison Moorer - Alabama Song
DYEAR=1998
DGENRE=Country
TTITLE0=Pardon Me
TTITLE1=Long Black Train
TTITLE2=Alabama Song
TTITLE3=Call My Name
TTITLE4=One That Got Away (Got Away With My Heart)
TTITLE5=I Found A Letter
TTITLE6=Easier To Forget
TTITLE7=Set You Free
TTITLE8=A Soft Place To Fall
TTITLE9=Tell Me Baby
TTITLE10=Is Heaven Good Enough For You
EXTD=YEAR: 1998
EXTT0=
EXTT1=
EXTT2=
EXTT3=
EXTT4=
EXTT5=
EXTT6=
EXTT7=
EXTT8=
EXTT9=
EXTT10=
PLAYORDER=
